<mxfile host="app.diagrams.net" modified="2021-11-18T11:10:32.852Z" agent="5.0 (Windows NT 10.0; Win64; x64) AppleWebKit/537.36 (KHTML, like Gecko) Chrome/94.0.4606.81 Safari/537.36" etag="zMJ-C8OwsK1p_vOwpuIl" version="15.6.8" type="github">
  <diagram id="C5RBs43oDa-KdzZeNtuy" name="Page-1">
    <mxGraphModel dx="1252" dy="953" grid="0" gridSize="10" guides="1" tooltips="1" connect="1" arrows="1" fold="1" page="1" pageScale="1" pageWidth="827" pageHeight="1169" math="0" shadow="0">
      <root>
        <mxCell id="WIyWlLk6GJQsqaUBKTNV-0" />
        <mxCell id="WIyWlLk6GJQsqaUBKTNV-1" parent="WIyWlLk6GJQsqaUBKTNV-0" />
        <mxCell id="vwRNKkZYx34mhxs5X2M3-15" style="edgeStyle=orthogonalEdgeStyle;rounded=0;orthogonalLoop=1;jettySize=auto;html=1;exitX=0.5;exitY=1;exitDx=0;exitDy=0;entryX=0.442;entryY=0.04;entryDx=0;entryDy=0;entryPerimeter=0;" edge="1" parent="WIyWlLk6GJQsqaUBKTNV-1" source="vwRNKkZYx34mhxs5X2M3-0" target="vwRNKkZYx34mhxs5X2M3-2">
          <mxGeometry relative="1" as="geometry" />
        </mxCell>
        <mxCell id="vwRNKkZYx34mhxs5X2M3-16" style="edgeStyle=orthogonalEdgeStyle;rounded=0;orthogonalLoop=1;jettySize=auto;html=1;exitX=0.5;exitY=1;exitDx=0;exitDy=0;entryX=0.5;entryY=0;entryDx=0;entryDy=0;" edge="1" parent="WIyWlLk6GJQsqaUBKTNV-1" source="vwRNKkZYx34mhxs5X2M3-0" target="vwRNKkZYx34mhxs5X2M3-3">
          <mxGeometry relative="1" as="geometry" />
        </mxCell>
        <mxCell id="vwRNKkZYx34mhxs5X2M3-0" value="ATM System" style="rounded=0;whiteSpace=wrap;html=1;gradientColor=none;" vertex="1" parent="WIyWlLk6GJQsqaUBKTNV-1">
          <mxGeometry x="458" y="111" width="108" height="42" as="geometry" />
        </mxCell>
        <mxCell id="vwRNKkZYx34mhxs5X2M3-14" style="edgeStyle=none;rounded=0;orthogonalLoop=1;jettySize=auto;html=1;exitX=0.5;exitY=1;exitDx=0;exitDy=0;entryX=0.5;entryY=0;entryDx=0;entryDy=0;" edge="1" parent="WIyWlLk6GJQsqaUBKTNV-1" source="vwRNKkZYx34mhxs5X2M3-1" target="vwRNKkZYx34mhxs5X2M3-0">
          <mxGeometry relative="1" as="geometry" />
        </mxCell>
        <mxCell id="vwRNKkZYx34mhxs5X2M3-1" value="start" style="rounded=1;whiteSpace=wrap;html=1;fontSize=12;glass=0;strokeWidth=1;shadow=0;" vertex="1" parent="WIyWlLk6GJQsqaUBKTNV-1">
          <mxGeometry x="458" y="5" width="102" height="40" as="geometry" />
        </mxCell>
        <mxCell id="vwRNKkZYx34mhxs5X2M3-36" style="edgeStyle=orthogonalEdgeStyle;rounded=0;orthogonalLoop=1;jettySize=auto;html=1;exitX=0.5;exitY=1;exitDx=0;exitDy=0;" edge="1" parent="WIyWlLk6GJQsqaUBKTNV-1" source="vwRNKkZYx34mhxs5X2M3-2" target="vwRNKkZYx34mhxs5X2M3-35">
          <mxGeometry relative="1" as="geometry" />
        </mxCell>
        <mxCell id="vwRNKkZYx34mhxs5X2M3-2" value="Admin System" style="rounded=0;whiteSpace=wrap;html=1;gradientColor=none;" vertex="1" parent="WIyWlLk6GJQsqaUBKTNV-1">
          <mxGeometry x="286" y="203" width="108" height="42" as="geometry" />
        </mxCell>
        <mxCell id="vwRNKkZYx34mhxs5X2M3-8" style="rounded=0;orthogonalLoop=1;jettySize=auto;html=1;exitX=0.5;exitY=1;exitDx=0;exitDy=0;" edge="1" parent="WIyWlLk6GJQsqaUBKTNV-1" source="vwRNKkZYx34mhxs5X2M3-3" target="vwRNKkZYx34mhxs5X2M3-5">
          <mxGeometry relative="1" as="geometry" />
        </mxCell>
        <mxCell id="vwRNKkZYx34mhxs5X2M3-3" value="User System" style="rounded=0;whiteSpace=wrap;html=1;gradientColor=none;" vertex="1" parent="WIyWlLk6GJQsqaUBKTNV-1">
          <mxGeometry x="583.5" y="206" width="108" height="42" as="geometry" />
        </mxCell>
        <mxCell id="vwRNKkZYx34mhxs5X2M3-10" style="edgeStyle=none;rounded=0;orthogonalLoop=1;jettySize=auto;html=1;exitX=0.5;exitY=1;exitDx=0;exitDy=0;" edge="1" parent="WIyWlLk6GJQsqaUBKTNV-1" source="vwRNKkZYx34mhxs5X2M3-5" target="vwRNKkZYx34mhxs5X2M3-9">
          <mxGeometry relative="1" as="geometry" />
        </mxCell>
        <mxCell id="vwRNKkZYx34mhxs5X2M3-12" style="edgeStyle=none;rounded=0;orthogonalLoop=1;jettySize=auto;html=1;exitX=0;exitY=0.5;exitDx=0;exitDy=0;" edge="1" parent="WIyWlLk6GJQsqaUBKTNV-1" source="vwRNKkZYx34mhxs5X2M3-5">
          <mxGeometry relative="1" as="geometry">
            <mxPoint x="581" y="252" as="targetPoint" />
          </mxGeometry>
        </mxCell>
        <mxCell id="vwRNKkZYx34mhxs5X2M3-5" value="login?" style="rhombus;whiteSpace=wrap;html=1;shadow=0;fontFamily=Helvetica;fontSize=12;align=center;strokeWidth=1;spacing=6;spacingTop=-4;" vertex="1" parent="WIyWlLk6GJQsqaUBKTNV-1">
          <mxGeometry x="581" y="297" width="113" height="77" as="geometry" />
        </mxCell>
        <mxCell id="vwRNKkZYx34mhxs5X2M3-24" style="edgeStyle=orthogonalEdgeStyle;rounded=0;orthogonalLoop=1;jettySize=auto;html=1;exitX=0.5;exitY=1;exitDx=0;exitDy=0;" edge="1" parent="WIyWlLk6GJQsqaUBKTNV-1" source="vwRNKkZYx34mhxs5X2M3-9" target="vwRNKkZYx34mhxs5X2M3-21">
          <mxGeometry relative="1" as="geometry" />
        </mxCell>
        <mxCell id="vwRNKkZYx34mhxs5X2M3-25" style="edgeStyle=orthogonalEdgeStyle;rounded=0;orthogonalLoop=1;jettySize=auto;html=1;exitX=0.5;exitY=1;exitDx=0;exitDy=0;" edge="1" parent="WIyWlLk6GJQsqaUBKTNV-1" source="vwRNKkZYx34mhxs5X2M3-9" target="vwRNKkZYx34mhxs5X2M3-22">
          <mxGeometry relative="1" as="geometry" />
        </mxCell>
        <mxCell id="vwRNKkZYx34mhxs5X2M3-26" style="edgeStyle=orthogonalEdgeStyle;rounded=0;orthogonalLoop=1;jettySize=auto;html=1;exitX=0.5;exitY=1;exitDx=0;exitDy=0;entryX=0.5;entryY=0;entryDx=0;entryDy=0;" edge="1" parent="WIyWlLk6GJQsqaUBKTNV-1" source="vwRNKkZYx34mhxs5X2M3-9" target="vwRNKkZYx34mhxs5X2M3-23">
          <mxGeometry relative="1" as="geometry" />
        </mxCell>
        <mxCell id="vwRNKkZYx34mhxs5X2M3-27" style="edgeStyle=orthogonalEdgeStyle;rounded=0;orthogonalLoop=1;jettySize=auto;html=1;exitX=0.5;exitY=1;exitDx=0;exitDy=0;entryX=0.5;entryY=0;entryDx=0;entryDy=0;" edge="1" parent="WIyWlLk6GJQsqaUBKTNV-1" source="vwRNKkZYx34mhxs5X2M3-9" target="vwRNKkZYx34mhxs5X2M3-20">
          <mxGeometry relative="1" as="geometry" />
        </mxCell>
        <mxCell id="vwRNKkZYx34mhxs5X2M3-9" value="Enter ATM System" style="rounded=0;whiteSpace=wrap;html=1;gradientColor=none;" vertex="1" parent="WIyWlLk6GJQsqaUBKTNV-1">
          <mxGeometry x="586" y="406" width="108" height="42" as="geometry" />
        </mxCell>
        <mxCell id="vwRNKkZYx34mhxs5X2M3-11" value="Yes" style="text;html=1;strokeColor=none;fillColor=none;align=center;verticalAlign=middle;whiteSpace=wrap;rounded=0;" vertex="1" parent="WIyWlLk6GJQsqaUBKTNV-1">
          <mxGeometry x="622" y="374" width="60" height="30" as="geometry" />
        </mxCell>
        <mxCell id="vwRNKkZYx34mhxs5X2M3-13" value="NO" style="text;html=1;strokeColor=none;fillColor=none;align=center;verticalAlign=middle;whiteSpace=wrap;rounded=0;" vertex="1" parent="WIyWlLk6GJQsqaUBKTNV-1">
          <mxGeometry x="566" y="267" width="60" height="30" as="geometry" />
        </mxCell>
        <mxCell id="vwRNKkZYx34mhxs5X2M3-32" style="edgeStyle=orthogonalEdgeStyle;rounded=0;orthogonalLoop=1;jettySize=auto;html=1;exitX=0.5;exitY=1;exitDx=0;exitDy=0;entryX=0.5;entryY=0;entryDx=0;entryDy=0;" edge="1" parent="WIyWlLk6GJQsqaUBKTNV-1" source="vwRNKkZYx34mhxs5X2M3-20">
          <mxGeometry relative="1" as="geometry">
            <mxPoint x="543" y="633.0000000000002" as="targetPoint" />
          </mxGeometry>
        </mxCell>
        <mxCell id="vwRNKkZYx34mhxs5X2M3-20" value="billopayment" style="rounded=0;whiteSpace=wrap;html=1;gradientColor=none;" vertex="1" parent="WIyWlLk6GJQsqaUBKTNV-1">
          <mxGeometry x="701" y="505" width="108" height="42" as="geometry" />
        </mxCell>
        <mxCell id="vwRNKkZYx34mhxs5X2M3-29" style="edgeStyle=orthogonalEdgeStyle;rounded=0;orthogonalLoop=1;jettySize=auto;html=1;exitX=0.5;exitY=1;exitDx=0;exitDy=0;" edge="1" parent="WIyWlLk6GJQsqaUBKTNV-1" source="vwRNKkZYx34mhxs5X2M3-21">
          <mxGeometry relative="1" as="geometry">
            <mxPoint x="543.0000000000005" y="633.0000000000005" as="targetPoint" />
          </mxGeometry>
        </mxCell>
        <mxCell id="vwRNKkZYx34mhxs5X2M3-21" value="deposit" style="rounded=0;whiteSpace=wrap;html=1;gradientColor=none;" vertex="1" parent="WIyWlLk6GJQsqaUBKTNV-1">
          <mxGeometry x="290" y="505" width="108" height="42" as="geometry" />
        </mxCell>
        <mxCell id="vwRNKkZYx34mhxs5X2M3-30" style="edgeStyle=orthogonalEdgeStyle;rounded=0;orthogonalLoop=1;jettySize=auto;html=1;exitX=0.5;exitY=1;exitDx=0;exitDy=0;entryX=0.5;entryY=0;entryDx=0;entryDy=0;" edge="1" parent="WIyWlLk6GJQsqaUBKTNV-1" source="vwRNKkZYx34mhxs5X2M3-22">
          <mxGeometry relative="1" as="geometry">
            <mxPoint x="543" y="633.0000000000002" as="targetPoint" />
          </mxGeometry>
        </mxCell>
        <mxCell id="vwRNKkZYx34mhxs5X2M3-22" value="withdrawal" style="rounded=0;whiteSpace=wrap;html=1;gradientColor=none;" vertex="1" parent="WIyWlLk6GJQsqaUBKTNV-1">
          <mxGeometry x="432" y="505" width="108" height="42" as="geometry" />
        </mxCell>
        <mxCell id="vwRNKkZYx34mhxs5X2M3-31" style="edgeStyle=orthogonalEdgeStyle;rounded=0;orthogonalLoop=1;jettySize=auto;html=1;exitX=0.5;exitY=1;exitDx=0;exitDy=0;entryX=0.5;entryY=0;entryDx=0;entryDy=0;" edge="1" parent="WIyWlLk6GJQsqaUBKTNV-1" source="vwRNKkZYx34mhxs5X2M3-23">
          <mxGeometry relative="1" as="geometry">
            <mxPoint x="543" y="633.0000000000002" as="targetPoint" />
          </mxGeometry>
        </mxCell>
        <mxCell id="vwRNKkZYx34mhxs5X2M3-23" value="transfer" style="rounded=0;whiteSpace=wrap;html=1;gradientColor=none;" vertex="1" parent="WIyWlLk6GJQsqaUBKTNV-1">
          <mxGeometry x="569" y="508" width="108" height="41" as="geometry" />
        </mxCell>
        <mxCell id="vwRNKkZYx34mhxs5X2M3-33" style="edgeStyle=orthogonalEdgeStyle;rounded=0;orthogonalLoop=1;jettySize=auto;html=1;exitX=0;exitY=0.5;exitDx=0;exitDy=0;entryX=0;entryY=0.5;entryDx=0;entryDy=0;" edge="1" parent="WIyWlLk6GJQsqaUBKTNV-1" target="vwRNKkZYx34mhxs5X2M3-0">
          <mxGeometry relative="1" as="geometry">
            <mxPoint x="503" y="673.0000000000002" as="sourcePoint" />
            <Array as="points">
              <mxPoint x="86" y="673" />
              <mxPoint x="86" y="132" />
            </Array>
          </mxGeometry>
        </mxCell>
        <mxCell id="vwRNKkZYx34mhxs5X2M3-34" value="exit&amp;nbsp; login" style="rounded=0;whiteSpace=wrap;html=1;gradientColor=none;" vertex="1" parent="WIyWlLk6GJQsqaUBKTNV-1">
          <mxGeometry x="505" y="631" width="96" height="64" as="geometry" />
        </mxCell>
        <mxCell id="vwRNKkZYx34mhxs5X2M3-50" style="edgeStyle=orthogonalEdgeStyle;rounded=0;orthogonalLoop=1;jettySize=auto;html=1;exitX=0;exitY=0.5;exitDx=0;exitDy=0;entryX=0;entryY=0.5;entryDx=0;entryDy=0;" edge="1" parent="WIyWlLk6GJQsqaUBKTNV-1" source="vwRNKkZYx34mhxs5X2M3-35" target="vwRNKkZYx34mhxs5X2M3-2">
          <mxGeometry relative="1" as="geometry" />
        </mxCell>
        <mxCell id="vwRNKkZYx34mhxs5X2M3-53" style="edgeStyle=orthogonalEdgeStyle;rounded=0;orthogonalLoop=1;jettySize=auto;html=1;exitX=0.5;exitY=1;exitDx=0;exitDy=0;" edge="1" parent="WIyWlLk6GJQsqaUBKTNV-1" source="vwRNKkZYx34mhxs5X2M3-35" target="vwRNKkZYx34mhxs5X2M3-38">
          <mxGeometry relative="1" as="geometry" />
        </mxCell>
        <mxCell id="vwRNKkZYx34mhxs5X2M3-54" style="edgeStyle=orthogonalEdgeStyle;rounded=0;orthogonalLoop=1;jettySize=auto;html=1;exitX=0.5;exitY=1;exitDx=0;exitDy=0;" edge="1" parent="WIyWlLk6GJQsqaUBKTNV-1" source="vwRNKkZYx34mhxs5X2M3-35" target="vwRNKkZYx34mhxs5X2M3-37">
          <mxGeometry relative="1" as="geometry" />
        </mxCell>
        <mxCell id="vwRNKkZYx34mhxs5X2M3-55" style="edgeStyle=orthogonalEdgeStyle;rounded=0;orthogonalLoop=1;jettySize=auto;html=1;exitX=0.5;exitY=1;exitDx=0;exitDy=0;" edge="1" parent="WIyWlLk6GJQsqaUBKTNV-1" source="vwRNKkZYx34mhxs5X2M3-35">
          <mxGeometry relative="1" as="geometry">
            <mxPoint x="462.09895234949454" y="399.80043658088243" as="targetPoint" />
          </mxGeometry>
        </mxCell>
        <mxCell id="vwRNKkZYx34mhxs5X2M3-35" value="login?" style="rhombus;whiteSpace=wrap;html=1;shadow=0;fontFamily=Helvetica;fontSize=12;align=center;strokeWidth=1;spacing=6;spacingTop=-4;" vertex="1" parent="WIyWlLk6GJQsqaUBKTNV-1">
          <mxGeometry x="290" y="275" width="100" height="77" as="geometry" />
        </mxCell>
        <mxCell id="vwRNKkZYx34mhxs5X2M3-59" style="edgeStyle=orthogonalEdgeStyle;rounded=0;orthogonalLoop=1;jettySize=auto;html=1;exitX=0.5;exitY=1;exitDx=0;exitDy=0;entryX=0.5;entryY=0;entryDx=0;entryDy=0;" edge="1" parent="WIyWlLk6GJQsqaUBKTNV-1" source="vwRNKkZYx34mhxs5X2M3-37" target="vwRNKkZYx34mhxs5X2M3-57">
          <mxGeometry relative="1" as="geometry" />
        </mxCell>
        <mxCell id="vwRNKkZYx34mhxs5X2M3-37" value="print report" style="rounded=0;whiteSpace=wrap;html=1;gradientColor=none;" vertex="1" parent="WIyWlLk6GJQsqaUBKTNV-1">
          <mxGeometry x="130" y="400" width="108" height="42" as="geometry" />
        </mxCell>
        <mxCell id="vwRNKkZYx34mhxs5X2M3-60" style="edgeStyle=orthogonalEdgeStyle;rounded=0;orthogonalLoop=1;jettySize=auto;html=1;exitX=0.5;exitY=1;exitDx=0;exitDy=0;entryX=0.5;entryY=0;entryDx=0;entryDy=0;" edge="1" parent="WIyWlLk6GJQsqaUBKTNV-1" source="vwRNKkZYx34mhxs5X2M3-38" target="vwRNKkZYx34mhxs5X2M3-57">
          <mxGeometry relative="1" as="geometry" />
        </mxCell>
        <mxCell id="vwRNKkZYx34mhxs5X2M3-38" value="refill money" style="rounded=0;whiteSpace=wrap;html=1;gradientColor=none;" vertex="1" parent="WIyWlLk6GJQsqaUBKTNV-1">
          <mxGeometry x="270" y="400" width="108" height="42" as="geometry" />
        </mxCell>
        <mxCell id="vwRNKkZYx34mhxs5X2M3-58" style="edgeStyle=orthogonalEdgeStyle;rounded=0;orthogonalLoop=1;jettySize=auto;html=1;exitX=0.5;exitY=1;exitDx=0;exitDy=0;entryX=0.5;entryY=0;entryDx=0;entryDy=0;" edge="1" parent="WIyWlLk6GJQsqaUBKTNV-1" source="vwRNKkZYx34mhxs5X2M3-39" target="vwRNKkZYx34mhxs5X2M3-57">
          <mxGeometry relative="1" as="geometry" />
        </mxCell>
        <mxCell id="vwRNKkZYx34mhxs5X2M3-39" value="pay interest" style="rounded=0;whiteSpace=wrap;html=1;gradientColor=none;" vertex="1" parent="WIyWlLk6GJQsqaUBKTNV-1">
          <mxGeometry x="403" y="400" width="108" height="42" as="geometry" />
        </mxCell>
        <mxCell id="vwRNKkZYx34mhxs5X2M3-47" value="Yes" style="text;html=1;strokeColor=none;fillColor=none;align=center;verticalAlign=middle;whiteSpace=wrap;rounded=0;" vertex="1" parent="WIyWlLk6GJQsqaUBKTNV-1">
          <mxGeometry x="330" y="347" width="60" height="30" as="geometry" />
        </mxCell>
        <mxCell id="vwRNKkZYx34mhxs5X2M3-51" value="NO" style="text;html=1;strokeColor=none;fillColor=none;align=center;verticalAlign=middle;whiteSpace=wrap;rounded=0;" vertex="1" parent="WIyWlLk6GJQsqaUBKTNV-1">
          <mxGeometry x="251" y="248" width="60" height="30" as="geometry" />
        </mxCell>
        <mxCell id="vwRNKkZYx34mhxs5X2M3-61" style="edgeStyle=orthogonalEdgeStyle;rounded=0;orthogonalLoop=1;jettySize=auto;html=1;exitX=0;exitY=0.5;exitDx=0;exitDy=0;entryX=0;entryY=0.5;entryDx=0;entryDy=0;" edge="1" parent="WIyWlLk6GJQsqaUBKTNV-1" source="vwRNKkZYx34mhxs5X2M3-57" target="vwRNKkZYx34mhxs5X2M3-0">
          <mxGeometry relative="1" as="geometry">
            <Array as="points">
              <mxPoint x="87" y="519" />
              <mxPoint x="87" y="132" />
            </Array>
          </mxGeometry>
        </mxCell>
        <mxCell id="vwRNKkZYx34mhxs5X2M3-57" value="exit" style="rounded=0;whiteSpace=wrap;html=1;gradientColor=none;" vertex="1" parent="WIyWlLk6GJQsqaUBKTNV-1">
          <mxGeometry x="177" y="502" width="65" height="35" as="geometry" />
        </mxCell>
      </root>
    </mxGraphModel>
  </diagram>
</mxfile>
